<?xml version="1.0" encoding="utf-8"?>
<!-- Generator: Adobe Illustrator 25.2.2, SVG Export Plug-In . SVG Version: 6.00 Build 0)  -->
<svg version="1.1" id="Calque_1" xmlns="http://www.w3.org/2000/svg" xmlns:xlink="http://www.w3.org/1999/xlink" x="0px" y="0px"
	 viewBox="0 0 512 512" style="enable-background:new 0 0 512 512;" xml:space="preserve">
<style type="text/css">
	.st0{fill:#0AA8A7;}
</style>
<path class="st0" d="M15,136h15v45c0,8.3,6.7,15,15,15s15-6.7,15-15v-45h15c8.3,0,15-6.7,15-15v-15h45c8.3,0,15-6.7,15-15
	s-6.7-15-15-15H90V61c0-8.3-6.7-15-15-15H15C6.7,46,0,52.7,0,61v60C0,129.3,6.7,136,15,136z"/>
<path class="st0" d="M512,61c0-8.3-6.7-15-15-15h-60c-8.3,0-15,6.7-15,15v15h-45c-8.3,0-15,6.7-15,15s6.7,15,15,15h45v15
	c0,8.3,6.7,15,15,15h15v45c0,8.3,6.7,15,15,15s15-6.7,15-15v-45h15c8.3,0,15-6.7,15-15V61z"/>
<path class="st0" d="M422,361V151c0-8.3-6.7-15-15-15H105c-8.3,0-15,6.7-15,15v210c0,8.3,6.7,15,15,15h302
	C415.3,376,422,369.3,422,361z"/>
<path class="st0" d="M437,466h60c8.3,0,15-6.7,15-15v-60c0-8.3-6.7-15-15-15h-15v-45c0-8.3-6.7-15-15-15s-15,6.7-15,15v45h-15
	c-8.3,0-15,6.7-15,15v15h-45c-8.3,0-15,6.7-15,15s6.7,15,15,15h45v15C422,459.3,428.7,466,437,466z"/>
<path class="st0" d="M15,466h60c8.3,0,15-6.7,15-15v-15h45c8.3,0,15-6.7,15-15s-6.7-15-15-15H90v-15c0-8.3-6.7-15-15-15H60v-45
	c0-8.3-6.7-15-15-15s-15,6.7-15,15v45H15c-8.3,0-15,6.7-15,15v60C0,459.3,6.7,466,15,466z"/>
<path class="st0" d="M195,406c-8.3,0-15,6.7-15,15s6.7,15,15,15h31c8.3,0,15-6.7,15-15s-6.7-15-15-15H195z"/>
<path class="st0" d="M286,406c-8.3,0-15,6.7-15,15s6.7,15,15,15h31c8.3,0,15-6.7,15-15s-6.7-15-15-15H286z"/>
<path class="st0" d="M226,106c8.3,0,15-6.7,15-15s-6.7-15-15-15h-31c-8.3,0-15,6.7-15,15s6.7,15,15,15H226z"/>
<path class="st0" d="M317,106c8.3,0,15-6.7,15-15s-6.7-15-15-15h-31c-8.3,0-15,6.7-15,15s6.7,15,15,15H317z"/>
<path class="st0" d="M467,286c8.3,0,15-6.7,15-15v-30c0-8.3-6.7-15-15-15s-15,6.7-15,15v30C452,279.3,458.7,286,467,286z"/>
</svg>
